<svg id="visual" viewBox="0 0 900 600" width="900" height="600" xmlns="http://www.w3.org/2000/svg" xmlns:xlink="http://www.w3.org/1999/xlink" version="1.1"><rect x="0" y="0" width="900" height="600" fill="#ffffff"></rect><defs><linearGradient id="grad1_0" x1="33.3%" y1="0%" x2="100%" y2="100%"><stop offset="20%" stop-color="#ffffff" stop-opacity="1"></stop><stop offset="80%" stop-color="#ffffff" stop-opacity="1"></stop></linearGradient></defs><defs><linearGradient id="grad2_0" x1="0%" y1="0%" x2="66.7%" y2="100%"><stop offset="20%" stop-color="#ffffff" stop-opacity="1"></stop><stop offset="80%" stop-color="#ffffff" stop-opacity="1"></stop></linearGradient></defs><g transform="translate(900, 0)"><path d="M0 189.3C-17.4 175 -34.9 160.6 -48.8 150.3C-62.8 139.9 -73.3 133.6 -94.6 130.3C-116 126.9 -148.3 126.6 -153.1 111.3C-158 95.9 -135.5 65.5 -137 44.5C-138.4 23.4 -163.9 11.7 -189.3 0L0 0Z" fill="#9b8fe8"></path></g><g transform="translate(0, 600)"><path d="M0 -189.3C11.7 -164.5 23.5 -139.7 45.1 -138.9C66.8 -138 98.4 -161 111.3 -153.1C124.2 -145.3 118.3 -106.6 114.1 -82.9C109.8 -59.1 107 -50.3 119.8 -38.9C132.6 -27.6 161 -13.8 189.3 0L0 0Z" fill="#9b8fe8"></path></g></svg>