<svg id="visual" viewBox="0 0 900 450" width="900" height="450" xmlns="http://www.w3.org/2000/svg" xmlns:xlink="http://www.w3.org/1999/xlink" version="1.1"><rect x="0" y="0" width="900" height="450" fill="#ffffff"></rect><defs><linearGradient id="grad1_0" x1="50%" y1="100%" x2="100%" y2="0%"><stop offset="10%" stop-color="#ffffff" stop-opacity="1"></stop><stop offset="90%" stop-color="#ffffff" stop-opacity="1"></stop></linearGradient></defs><defs><linearGradient id="grad2_0" x1="0%" y1="100%" x2="50%" y2="0%"><stop offset="10%" stop-color="#ffffff" stop-opacity="1"></stop><stop offset="90%" stop-color="#ffffff" stop-opacity="1"></stop></linearGradient></defs><g transform="translate(900, 450)"><path d="M-157.5 0C-158.3 -14.8 -159 -29.5 -152.1 -40.8C-145.3 -52 -130.7 -59.8 -123 -71C-115.2 -82.2 -114.2 -97 -106.8 -106.8C-99.3 -116.6 -85.3 -121.4 -73 -126.4C-60.7 -131.5 -49.9 -136.8 -38 -142C-26.2 -147.2 -13.1 -152.4 0 -157.5L0 0Z" fill="#9b8fe8"></path></g><g transform="translate(0, 0)"><path d="M157.5 0C157.5 14.7 157.4 29.4 147.8 39.6C138.1 49.8 118.9 55.4 106.5 61.5C94.1 67.6 88.6 74.2 84.1 84.1C79.7 94.1 76.2 107.4 69.5 120.4C62.8 133.4 52.9 146 40.8 152.1C28.6 158.3 14.3 157.9 0 157.5L0 0Z" fill="#9b8fe8"></path></g></svg>