<svg id="visual" viewBox="0 0 900 450" width="900" height="450" xmlns="http://www.w3.org/2000/svg" xmlns:xlink="http://www.w3.org/1999/xlink" version="1.1"><rect x="0" y="0" width="900" height="450" fill="#ffffff"></rect><g transform="translate(880.3713196850149 73.35183551054055)"><path d="M148.3 -326.4C168.6 -245.1 145.2 -157.7 206.9 -102.3C268.7 -46.9 415.6 -23.4 440.5 14.4C465.4 52.2 368.2 104.3 288.8 129.2C209.4 154 147.7 151.5 102.5 197.9C57.3 244.3 28.7 339.7 -8.2 353.8C-45 367.9 -90 300.9 -168.7 273.8C-247.3 246.7 -359.7 259.6 -393.3 220.6C-427 181.7 -382 90.8 -347.6 19.8C-313.3 -51.2 -289.6 -102.3 -274.7 -173.9C-259.9 -245.5 -254 -337.5 -209.6 -404.9C-165.3 -472.4 -82.7 -515.2 -9.3 -499C64 -482.9 128 -407.7 148.3 -326.4" fill="#907ffc"></path></g></svg>